HIERARCHY
ROOT Hips
{
    OFFSET 0.000 93.594 0.000
    CHANNELS 6 Xposition Yposition Zposition Yrotation Xrotation Zrotation
    JOINT RightHip
    {
        OFFSET -9.500 -1.594 0.000
        CHANNELS 3 Yrotation Xrotation Zrotation
        JOINT RightKnee
        {
            OFFSET 0.000 -42.000 0.000
            CHANNELS 3 Yrotation Xrotation Zrotation
            JOINT RightAnkle
            {
                OFFSET 0.000 -42.000 0.000
                CHANNELS 3 Yrotation Xrotation Zrotation
                End Site
                {
                    OFFSET 0.000 -8.000 17.500
                }
            }
        }
    }
    JOINT LeftHip
    {
        OFFSET 9.500 -1.594 0.000
        CHANNELS 3 Yrotation Xrotation Zrotation
        JOINT LeftKnee
        {
            OFFSET 0.000 -42.000 0.000
            CHANNELS 3 Yrotation Xrotation Zrotation
            JOINT LeftAnkle
            {
                OFFSET 0.000 -42.000 0.000
                CHANNELS 3 Yrotation Xrotation Zrotation
                End Site
                {
                    OFFSET 0.000 -8.000 17.500
                }
            }
        }
    }
    JOINT Chest
    {
        OFFSET 0.000 14.348 0.000
        CHANNELS 3 Yrotation Xrotation Zrotation
        JOINT Chest2
        {
            OFFSET 0.000 9.746 0.000
            CHANNELS 3 Yrotation Xrotation Zrotation
            JOINT Chest3
            {
                OFFSET 0.000 10.149 0.000
                CHANNELS 3 Yrotation Xrotation Zrotation
                JOINT Chest4
                {
                    OFFSET 0.000 9.746 0.000
                    CHANNELS 3 Yrotation Xrotation Zrotation
                    JOINT Neck
                    {
                        OFFSET 0.000 10.417 0.000
                        CHANNELS 3 Yrotation Xrotation Zrotation
                        JOINT Head
                        {
                            OFFSET 0.000 9.000 0.000
                            CHANNELS 3 Yrotation Xrotation Zrotation
                            End Site
                            {
                                OFFSET 0.000 16.000 0.000
                            }
                        }
                    }
                    JOINT RightCollar
                    {
                        OFFSET -3.200 6.945 0.000
                        CHANNELS 3 Yrotation Xrotation Zrotation
                        JOINT RightShoulder
                        {
                            OFFSET -12.800 0.000 0.000
                            CHANNELS 3 Yrotation Xrotation Zrotation
                            JOINT RightElbow
                            {
OFFSET -0 -27 0.000
						CHANNELS 3 Xrotation Yrotation Zrotation
                                JOINT RightWrist
                                {
OFFSET -0 -26 0.000
						CHANNELS 3 Xrotation Yrotation Zrotation
                                    JOINT RightFinger0
                                    {
OFFSET -0.196 -2.56 3.210
						CHANNELS 3 Xrotation Yrotation Zrotation
                                        JOINT RightFinger01
                                        {
OFFSET -0 -3.788 0.000
						CHANNELS 3 Xrotation Yrotation Zrotation
                                            JOINT RightFinger0Nub
                                            {
OFFSET -0 -2.631 0.000
						CHANNELS 3 Xrotation Yrotation Zrotation
                                                End Site
                                                {
OFFSET 0 -2.256 0
                                                }
                                            }
                                        }
                                    }
                                    JOINT RightFinger1
                                    {
OFFSET -0.523 -3.316 2.035
						CHANNELS 3 Xrotation Yrotation Zrotation
                                        JOINT RightFinger11
                                        {
OFFSET 0.094 -5.366 1.028
						CHANNELS 3 Xrotation Yrotation Zrotation
                                            JOINT RightFinger12
                                            {
OFFSET -0 -3.723 0.000
						CHANNELS 3 Xrotation Yrotation Zrotation
                                                JOINT RightFinger1Nub
                                                {
OFFSET -0 -2.111 0.000
						CHANNELS 3 Xrotation Yrotation Zrotation
                                                    End Site
                                                    {
OFFSET 0 -1.857 0
                                                    }
                                                }
                                            }
                                        }
                                    }
                                    JOINT RightFinger2
                                    {
OFFSET -0.532 -3.479 0.778
						CHANNELS 3 Xrotation Yrotation Zrotation
                                        JOINT RightFinger21
                                        {
OFFSET 0.086 -5.322 0.323
						CHANNELS 3 Xrotation Yrotation Zrotation
                                            JOINT RightFinger22
                                            {
OFFSET -0 -4.062 0.000
						CHANNELS 3 Xrotation Yrotation Zrotation
                                                JOINT RightFinger2Nub
                                                {
OFFSET -0 -2.547 0.000
						CHANNELS 3 Xrotation Yrotation Zrotation
                                                    End Site
                                                    {
OFFSET 0 -2.031 0
                                                    }
                                                }
                                            }
                                        }
                                    }
                                    JOINT RightFinger3
                                    {
OFFSET -0.553 -3.461 -0.133
						CHANNELS 3 Xrotation Yrotation Zrotation
                                        JOINT RightFinger31
                                        {
OFFSET 0.023 -4.767 -0.493
						CHANNELS 3 Xrotation Yrotation Zrotation
                                            JOINT RightFinger32
                                            {
OFFSET -0 -3.541 0.000
						CHANNELS 3 Xrotation Yrotation Zrotation
                                                JOINT RightFinger3Nub
                                                {
OFFSET -0 -2.456 0.000
						CHANNELS 3 Xrotation Yrotation Zrotation
                                                    End Site
                                                    {
OFFSET 0 -1.91 0
                                                    }
                                                }
                                            }
                                        }
                                    }
                                    JOINT RightFinger4
                                    {
OFFSET -0.483 -3.251 -1.236
						CHANNELS 3 Xrotation Yrotation Zrotation
                                        JOINT RightFinger41
                                        {
OFFSET 0.023 -4.259 -1.122
						CHANNELS 3 Xrotation Yrotation Zrotation
                                            JOINT RightFinger42
                                            {
OFFSET -0 -2.835 0.000
						CHANNELS 3 Xrotation Yrotation Zrotation
                                                JOINT RightFinger4Nub
                                                {
OFFSET -0 -1.792 0.000
						CHANNELS 3 Xrotation Yrotation Zrotation
                                                    End Site
                                                    {
OFFSET 0 -1.692 0
                                                    }
                                                }
                                            }
                                        }
                                    }
                                }
                            }
                        }
                    }
                    JOINT LeftCollar
                    {
                        OFFSET 3.200 6.945 0.000
                        CHANNELS 3 Yrotation Xrotation Zrotation
                        JOINT LeftShoulder
                        {
                            OFFSET 12.800 0.000 0.000
                            CHANNELS 3 Yrotation Xrotation Zrotation
                            JOINT LeftElbow
                            {
OFFSET -0 -27 0.000
						CHANNELS 3 Xrotation Yrotation Zrotation
                                JOINT LeftWrist
                                {
OFFSET -0 -26 0.000
						CHANNELS 3 Xrotation Yrotation Zrotation
                                    JOINT LeftFinger0
                                    {
OFFSET -0.196 -2.56 3.210
						CHANNELS 3 Xrotation Yrotation Zrotation
                                        JOINT LeftFinger01
                                        {
OFFSET -0 -3.788 0.000
						CHANNELS 3 Xrotation Yrotation Zrotation
                                            JOINT LeftFinger0Nub
                                            {
OFFSET -0 -2.631 0.000
						CHANNELS 3 Xrotation Yrotation Zrotation
                                                End Site
                                                {
OFFSET 0 -2.256 0
                                                }
                                            }
                                        }
                                    }
                                    JOINT LeftFinger1
                                    {
OFFSET -0.523 -3.316 2.035
						CHANNELS 3 Xrotation Yrotation Zrotation
                                        JOINT LeftFinger11
                                        {
OFFSET 0.094 -5.366 1.028
						CHANNELS 3 Xrotation Yrotation Zrotation
                                            JOINT LeftFinger12
                                            {
OFFSET -0 -3.723 0.000
						CHANNELS 3 Xrotation Yrotation Zrotation
                                                JOINT LeftFinger1Nub
                                                {
OFFSET -0 -2.111 0.000
						CHANNELS 3 Xrotation Yrotation Zrotation
                                                    End Site
                                                    {
OFFSET 0 -1.857 0
                                                    }
                                                }
                                            }
                                        }
                                    }
                                    JOINT LeftFinger2
                                    {
OFFSET -0.532 -3.479 0.778
						CHANNELS 3 Xrotation Yrotation Zrotation
                                        JOINT LeftFinger21
                                        {
OFFSET 0.086 -5.322 0.323
						CHANNELS 3 Xrotation Yrotation Zrotation
                                            JOINT LeftFinger22
                                            {
OFFSET -0 -4.062 0.000
						CHANNELS 3 Xrotation Yrotation Zrotation
                                                JOINT LeftFinger2Nub
                                                {
OFFSET -0 -2.547 0.000
						CHANNELS 3 Xrotation Yrotation Zrotation
                                                    End Site
                                                    {
OFFSET 0 -2.031 0
                                                    }
                                                }
                                            }
                                        }
                                    }
                                    JOINT LeftFinger3
                                    {
OFFSET -0.553 -3.461 -0.133
						CHANNELS 3 Xrotation Yrotation Zrotation
                                        JOINT LeftFinger31
                                        {
OFFSET 0.023 -4.767 -0.493
						CHANNELS 3 Xrotation Yrotation Zrotation
                                            JOINT LeftFinger32
                                            {
OFFSET -0 -3.541 0.000
						CHANNELS 3 Xrotation Yrotation Zrotation
                                                JOINT LeftFinger3Nub
                                                {
OFFSET -0 -2.456 0.000
						CHANNELS 3 Xrotation Yrotation Zrotation
                                                    End Site
                                                    {
OFFSET 0 -1.91 0
                                                    }
                                                }
                                            }
                                        }
                                    }
                                    JOINT LeftFinger4
                                    {
OFFSET -0.483 -3.251 -1.236
						CHANNELS 3 Xrotation Yrotation Zrotation
                                        JOINT LeftFinger41
                                        {
OFFSET 0.023 -4.259 -1.122
						CHANNELS 3 Xrotation Yrotation Zrotation
                                            JOINT LeftFinger42
                                            {
OFFSET -0 -2.835 0.000
						CHANNELS 3 Xrotation Yrotation Zrotation
                                                JOINT LeftFinger4Nub
                                                {
OFFSET -0 -1.792 0.000
						CHANNELS 3 Xrotation Yrotation Zrotation
                                                    End Site
                                                    {
OFFSET 0 -1.692 0
                                                    }
                                                }
                                            }
                                        }
                                    }
                                }
                            }
                        }
                    }
                }
            }
        }
    }
}
MOTION

Frames: 13
Frame Time: 0.017
-161.90 92.34 121.74 138.74 -2.16 -3.82 6.51 -6.59 -7.80 -0.00 15.56 -0.00 2.59 -7.64 12.22 -8.98 -11.47 1.43 -0.00 33.58 -0.00 6.87 -21.66 0.46 -4.50 -0.93 0.62 -1.13 -0.23 0.15 -1.88 -0.39 0.25 0.77 -0.77 0.52 0.76 -0.78 0.52 11.82 -15.56 8.13 17.56 -4.96 2.23 -16.95 2.02 -27.71 -46.44 -11.13 39.86 -21.17 3.82 11.24 -45.52 -0 16.93 19.5 -0 -12.89 5.03 -0 0.00 0 -0 0.00 -15 -0 32.46 0 -0 37.73 0 -0 18.86 0 -0 0.00 0 -0 27.08 0 -0 27.08 0 -0 27.08 0 -0 0.00 15 -0 40.94 0 -0 40.94 0 -0 40.94 0 -0 0.00 25 -0 41.47 0 -0 41.47 0 -0 41.47 -0.73 0.97 -2.25 11.54 -0.67 31.21 -40.84 15.4 -30.07 -5.31 18.01 -11.71 -11.68 0 -38.22 -13.31 0 5.99 22.22 0 0.00 0.00 0 0.00 -15.00 0 -20.52 0.00 0 -39.29 0.00 0 -19.65 0.00 0 0.00 0.00 0 -15.79 0.00 0 -15.79 0.00 0 -15.79 0.00 0 0.00 15.00 0 -46.34 0.00 0 -46.34 0.00 0 -46.34 0.00 0 0.00 25.00 0 -36.80 0.00 0 -36.80 0.00 0 -36.80 
-161.65 92.36 121.87 138.88 -2.04 -3.83 6.29 -6.66 -7.60 0.00 15.52 -0.00 2.61 -7.63 11.99 -9.13 -11.57 1.66 -0.00 33.68 -0.00 6.83 -21.74 0.27 -4.46 -0.95 0.61 -1.12 -0.24 0.15 -1.86 -0.39 0.25 0.77 -0.78 0.52 0.76 -0.78 0.52 11.84 -15.64 8.09 17.54 -4.97 2.19 -16.97 2.03 -27.69 -46.32 -11.17 39.92 -21.17 3.74 11.30 -45.53 -0 16.93 19.47 -0 -12.89 5.06 -0 0.00 0 -0 0.00 -15 -0 32.51 0 -0 37.64 0 -0 18.82 0 -0 0.00 0 -0 27.12 0 -0 27.12 0 -0 27.12 0 -0 0.00 15 -0 40.94 0 -0 40.94 0 -0 40.94 0 -0 0.00 25 -0 41.48 0 -0 41.48 0 -0 41.48 -0.83 0.93 -2.25 11.53 -0.76 31.31 -40.95 15.33 -29.97 -5.43 18 -11.74 -11.69 0 -38.24 -13.33 0 5.98 22.28 0 0.00 0.00 0 0.00 -15.00 0 -20.74 0.00 0 -39.20 0.00 0 -19.60 0.00 0 0.00 0.00 0 -15.84 0.00 0 -15.84 0.00 0 -15.84 0.00 0 0.00 15.00 0 -46.35 0.00 0 -46.35 0.00 0 -46.35 0.00 0 0.00 25.00 0 -36.83 0.00 0 -36.83 0.00 0 -36.83 
-161.43 92.38 121.98 138.88 -2.04 -3.83 6.21 -6.75 -7.44 -0.00 15.73 -0.00 2.68 -7.75 11.81 -9.24 -11.46 1.82 -0.00 33.61 -0.00 6.93 -21.76 0.08 -4.46 -0.95 0.61 -1.12 -0.24 0.15 -1.86 -0.39 0.25 0.77 -0.78 0.52 0.76 -0.78 0.52 11.84 -15.64 8.09 17.54 -4.97 2.19 -16.97 2.03 -27.69 -46.32 -11.17 39.92 -21.17 3.74 11.30 -45.53 -0 16.93 19.47 -0 -12.89 5.06 -0 0.00 0 -0 0.00 -15 -0 32.51 0 -0 37.64 0 -0 18.82 0 -0 0.00 0 -0 27.12 0 -0 27.12 0 -0 27.12 0 -0 0.00 15 -0 40.94 0 -0 40.94 0 -0 40.94 0 -0 0.00 25 -0 41.48 0 -0 41.48 0 -0 41.48 -0.83 0.93 -2.25 11.53 -0.76 31.31 -40.95 15.33 -29.97 -5.43 18 -11.74 -11.69 0 -38.24 -13.33 0 5.98 22.28 0 0.00 0.00 0 0.00 -15.00 0 -20.74 0.00 0 -39.20 0.00 0 -19.60 0.00 0 0.00 0.00 0 -21.75 0.00 0 -21.75 0.00 0 -21.75 0.00 0 0.00 15.00 0 -48.39 0.00 0 -48.39 0.00 0 -48.39 0.00 0 0.00 25.00 0 -39.83 0.00 0 -39.83 0.00 0 -39.83 
-161.22 92.39 122.07 138.88 -2.04 -3.83 6.13 -6.84 -7.29 0.00 15.96 0.00 2.74 -7.89 11.64 -9.35 -11.34 1.96 0.00 33.53 -0.00 7.01 -21.78 -0.09 -4.46 -0.95 0.61 -1.12 -0.24 0.15 -1.86 -0.39 0.25 0.77 -0.78 0.52 0.76 -0.78 0.52 11.84 -15.64 8.09 17.54 -4.97 2.19 -16.97 2.03 -27.69 -46.32 -11.17 39.92 -21.17 3.74 11.30 -45.53 -0 16.93 19.47 -0 -12.89 5.06 -0 0.00 0 -0 0.00 -15 -0 32.51 0 -0 37.64 0 -0 18.82 0 -0 0.00 0 -0 27.12 0 -0 27.12 0 -0 27.12 0 -0 0.00 15 -0 40.94 0 -0 40.94 0 -0 40.94 0 -0 0.00 25 -0 41.48 0 -0 41.48 0 -0 41.48 -0.83 0.93 -2.25 11.53 -0.76 31.31 -40.95 15.33 -29.97 -5.43 18 -11.74 -11.69 0 -38.24 -13.33 0 5.98 22.28 0 0.00 0.00 0 0.00 -15.00 0 -20.74 0.00 0 -39.20 0.00 0 -19.60 0.00 0 0.00 0.00 0 -21.66 0.00 0 -21.66 0.00 0 -21.66 0.00 0 0.00 15.00 0 -48.61 0.00 0 -48.61 0.00 0 -48.61 0.00 0 0.00 25.00 0 -39.86 0.00 0 -39.86 0.00 0 -39.86 
-161.12 92.38 122.07 138.22 -3.57 -3.36 7.80 -5.68 -7.50 0.00 16.85 -0.00 1.79 -8.09 11.77 -9.42 -9.53 1.18 -0.00 33.11 -0.00 7.72 -21.90 -0.45 -5.32 -1.11 0.30 -1.33 -0.28 0.07 -2.22 -0.47 0.11 0.86 -0.67 0.54 0.85 -0.68 0.54 13.72 -14.10 8.42 17.15 -4.31 2.67 -15.63 -0.41 -28.26 -46.63 -14.78 37.68 -20.57 5.59 9.91 -45.39 -0 16.88 19.76 -0 -12.94 3.53 -0 0.00 0 -0 0.00 -15 -0 31.89 0 -0 38.86 0 -0 19.43 0 -0 0.00 0 -0 28.31 0 -0 28.31 0 -0 28.31 0 -0 0.00 15 -0 41.93 0 -0 41.93 0 -0 41.93 0 -0 0.00 25 -0 41.35 0 -0 41.35 0 -0 41.35 -1.55 -0.61 -3.06 3.71 -5.80 36.32 -42.37 17.04 -28.75 -4.65 17.25 -13.55 -11.62 0 -37.50 -13.21 0 6.71 23.60 0 0.00 0.00 0 0.00 -15.00 0 -19.74 0.00 0 -31.22 0.00 0 -15.61 0.00 0 0.00 0.00 0 -16.78 0.00 0 -16.78 0.00 0 -16.78 0.00 0 0.00 15.00 0 -46.68 0.00 0 -46.68 0.00 0 -46.68 0.00 0 0.00 25.00 0 -36.93 0.00 0 -36.93 0.00 0 -36.93 
-161.05 92.37 122.03 138.20 -3.62 -3.34 7.66 -5.65 -7.51 -0.00 16.91 0.00 1.95 -8.15 11.73 -9.50 -9.45 1.14 0.00 33.14 0.00 7.84 -21.96 -0.49 -5.36 -1.05 0.31 -1.34 -0.27 0.07 -2.23 -0.45 0.12 0.86 -0.67 0.54 0.86 -0.68 0.54 13.81 -14.14 8.39 17.19 -4.29 2.66 -15.45 -0.29 -28.13 -46.79 -14.42 37.71 -20.61 5.65 9.93 -45.36 -0 16.89 19.81 -0 -12.93 3.58 -0 0.00 0 -0 0.00 -15 -0 31.89 0 -0 38.72 0 -0 19.36 0 -0 0.00 0 -0 28.24 0 -0 28.24 0 -0 28.24 0 -0 0.00 15 -0 41.87 0 -0 41.87 0 -0 41.87 0 -0 0.00 25 -0 41.28 0 -0 41.28 0 -0 41.28 -1.45 -0.62 -3.10 3.78 -5.62 36.09 -42.25 17.41 -28.99 -4.57 17.31 -13.73 -11.62 0 -37.54 -13.19 0 6.68 23.46 0 0.00 0.00 0 0.00 -15.00 0 -19.78 0.00 0 -31.00 0.00 0 -15.50 0.00 0 0.00 0.00 0 -16.77 0.00 0 -16.77 0.00 0 -16.77 0.00 0 0.00 15.00 0 -46.62 0.00 0 -46.62 0.00 0 -46.62 0.00 0 0.00 25.00 0 -36.96 0.00 0 -36.96 0.00 0 -36.96 
-161.02 92.37 122.00 138.20 -3.62 -3.34 7.50 -5.68 -7.51 0.00 16.97 -0.00 2.11 -8.19 11.71 -9.60 -9.44 1.12 0.00 33.16 0.00 7.95 -22.00 -0.51 -5.36 -1.05 0.31 -1.34 -0.27 0.07 -2.23 -0.45 0.12 0.86 -0.67 0.54 0.86 -0.68 0.54 13.81 -14.14 8.39 17.16 -4.24 2.69 -15.29 -0.16 -28.01 -46.99 -13.99 37.73 -20.64 5.63 10.00 -45.33 -0 16.88 19.87 -0 -12.94 3.64 -0 0.00 0 -0 0.00 -15 -0 31.89 0 -0 38.58 0 -0 19.29 0 -0 0.00 0 -0 28.11 0 -0 28.11 0 -0 28.11 0 -0 0.00 15 -0 41.77 0 -0 41.77 0 -0 41.77 0 -0 0.00 25 -0 41.23 0 -0 41.23 0 -0 41.23 -1.40 -0.38 -3.11 3.71 -5.87 36.08 -41.88 17.73 -29.38 -3.89 18.72 -14.75 -11.38 0 -37.86 -12.71 0 6.36 23.36 0 0.00 0.00 0 0.00 -15.00 0 -19.02 0.00 0 -39.83 0.00 0 -19.91 0.00 0 0.00 0.00 0 -16.94 0.00 0 -16.94 0.00 0 -16.94 0.00 0 0.00 15.00 0 -46.07 0.00 0 -46.07 0.00 0 -46.07 0.00 0 0.00 25.00 0 -36.80 0.00 0 -36.80 0.00 0 -36.80 
-161.00 92.36 121.97 138.20 -3.62 -3.34 7.38 -5.69 -7.53 -0.00 17.01 -0.00 2.26 -8.22 11.70 -9.68 -9.43 1.09 -0.00 33.18 -0.00 8.06 -22.03 -0.52 -5.36 -1.05 0.31 -1.34 -0.27 0.07 -2.23 -0.45 0.12 0.86 -0.67 0.54 0.86 -0.68 0.54 13.81 -14.14 8.39 17.14 -4.19 2.73 -15.14 -0.04 -27.9 -47.16 -13.6 37.76 -20.65 5.58 10.14 -45.32 -0 16.89 19.89 -0 -12.93 3.7 -0 0.00 0 -0 0.00 -15 -0 31.87 0 -0 38.37 0 -0 19.19 0 -0 0.00 0 -0 27.98 0 -0 27.98 0 -0 27.98 0 -0 0.00 15 -0 41.67 0 -0 41.67 0 -0 41.67 0 -0 0.00 25 -0 41.16 0 -0 41.16 0 -0 41.16 -1.41 -0.25 -3.05 3.73 -6.00 36.02 -41.56 17.88 -29.66 -4.05 18.84 -14.70 -11.38 0 -37.89 -12.70 0 6.32 23.32 0 0.00 0.00 0 0.00 -15.00 0 -19.08 0.00 0 -39.91 0.00 0 -19.95 0.00 0 0.00 0.00 0 -16.97 0.00 0 -16.97 0.00 0 -16.97 0.00 0 0.00 15.00 0 -46.09 0.00 0 -46.09 0.00 0 -46.09 0.00 0 0.00 25.00 0 -36.83 0.00 0 -36.83 0.00 0 -36.83 
-161.00 92.35 121.94 138.16 -3.66 -3.32 7.34 -5.67 -7.57 0.00 17.07 0.00 2.33 -8.24 11.70 -9.74 -9.37 1.02 -0.00 33.19 0.00 8.18 -22.04 -0.53 -5.34 -1.03 0.29 -1.34 -0.26 0.06 -2.22 -0.44 0.11 0.70 -0.69 0.55 0.69 -0.69 0.56 10.59 -14.01 9.04 17.27 -4.13 2.75 -15.00 0.09 -27.79 -47.33 -13.25 37.79 -20.63 5.52 10.37 -45.32 -0 16.87 19.89 -0 -12.95 3.77 -0 0.00 0 -0 0.00 -15 -0 31.83 0 -0 38.20 0 -0 19.10 0 -0 0.00 0 -0 27.65 0 -0 27.65 0 -0 27.65 0 -0 0.00 15 -0 41.58 0 -0 41.58 0 -0 41.58 0 -0 0.00 25 -0 41.11 0 -0 41.11 0 -0 41.11 -1.21 -0.08 -3.04 3.78 -5.91 35.76 -41.58 17.83 -29.64 -4.24 18.95 -14.61 -11.37 0 -37.92 -12.69 0 6.30 23.28 0 0.00 0.00 0 0.00 -15.00 0 -19.14 0.00 0 -39.79 0.00 0 -19.90 0.00 0 0.00 0.00 0 -16.99 0.00 0 -16.99 0.00 0 -16.99 0.00 0 0.00 15.00 0 -46.11 0.00 0 -46.11 0.00 0 -46.11 0.00 0 0.00 25.00 0 -36.86 0.00 0 -36.86 0.00 0 -36.86 
-160.99 92.35 121.92 138.07 -3.69 -3.30 7.32 -5.68 -7.59 -0.00 17.11 0.00 2.45 -8.26 11.69 -9.72 -9.34 0.98 -0.00 33.19 -0.00 8.28 -22.06 -0.54 -5.28 -1.02 0.28 -1.32 -0.26 0.06 -2.20 -0.43 0.11 0.70 -0.69 0.55 0.70 -0.70 0.56 10.61 -14.06 9.05 17.22 -4.08 2.77 -14.86 0.21 -27.68 -47.42 -12.98 37.85 -20.61 5.48 10.59 -45.34 -0 16.84 19.86 -0 -12.98 3.85 -0 0.00 0 -0 0.00 -15 -0 31.81 0 -0 38.06 0 -0 19.03 0 -0 0.00 0 -0 27.37 0 -0 27.37 0 -0 27.37 0 -0 0.00 15 -0 41.50 0 -0 41.50 0 -0 41.50 0 -0 0.00 25 -0 40.97 0 -0 40.97 0 -0 40.97 -1.13 0.11 -2.99 3.81 -5.84 35.49 -41.58 17.76 -29.61 -4.40 19.06 -14.52 -11.37 0 -37.93 -12.69 0 6.28 23.25 0 0.00 0.00 0 0.00 -15.00 0 -19.18 0.00 0 -39.76 0.00 0 -19.88 0.00 0 0.00 0.00 0 -16.98 0.00 0 -16.98 0.00 0 -16.98 0.00 0 0.00 15.00 0 -46.11 0.00 0 -46.11 0.00 0 -46.11 0.00 0 0.00 25.00 0 -36.87 0.00 0 -36.87 0.00 0 -36.87 
-161.00 92.34 121.88 137.69 -3.70 -3.34 7.51 -5.73 -7.57 -0.00 17.06 -0.00 2.64 -8.20 11.68 -9.36 -9.31 1.00 -0.00 33.23 0.00 8.28 -22.13 -0.50 -5.11 -0.98 0.33 -1.28 -0.25 0.08 -2.13 -0.42 0.13 0.72 -0.70 0.55 0.71 -0.70 0.56 10.94 -14.20 9.00 17.26 -4.08 2.76 -14.75 0.32 -27.58 -47.46 -12.75 37.98 -20.6 5.46 10.71 -45.35 -0 16.83 19.83 -0 -12.99 3.92 -0 0.00 0 -0 0.00 -15 -0 31.83 0 -0 37.94 0 -0 18.97 0 -0 0.00 0 -0 27.34 0 -0 27.34 0 -0 27.34 0 -0 0.00 15 -0 41.46 0 -0 41.46 0 -0 41.46 0 -0 0.00 25 -0 41.03 0 -0 41.03 0 -0 41.03 -1.02 0.23 -2.91 4.28 -5.07 34.69 -42.42 17.53 -29.14 -4.41 19.06 -14.50 -11.38 0 -37.91 -12.71 0 6.30 23.19 0 0.00 0.00 0 0.00 -15.00 0 -19.19 0.00 0 -39.73 0.00 0 -19.87 0.00 0 0.00 0.00 0 -16.90 0.00 0 -16.90 0.00 0 -16.90 0.00 0 0.00 15.00 0 -46.08 0.00 0 -46.08 0.00 0 -46.08 0.00 0 0.00 25.00 0 -36.84 0.00 0 -36.84 0.00 0 -36.84 
-161.02 92.33 121.84 137.58 -3.74 -3.34 7.27 -5.74 -7.61 -0.00 17.04 -0.00 3.02 -8.19 11.65 -9.24 -9.27 0.97 -0.00 33.26 -0.00 8.31 -22.16 -0.47 -5.09 -0.91 0.35 -1.27 -0.23 0.08 -2.12 -0.39 0.14 0.73 -0.70 0.55 0.72 -0.70 0.56 11.11 -14.26 8.95 17.34 -4.10 2.74 -14.65 0.42 -27.51 -47.5 -12.58 38.08 -20.61 5.42 10.76 -45.37 -0 16.80 19.8 -0 -13.02 4 -0 0.00 0 -0 0.00 -15 -0 31.80 0 -0 37.84 0 -0 18.92 0 -0 0.00 0 -0 27.36 0 -0 27.36 0 -0 27.36 0 -0 0.00 15 -0 41.39 0 -0 41.39 0 -0 41.39 0 -0 0.00 25 -0 40.84 0 -0 40.84 0 -0 40.84 -0.93 0.24 -2.91 4.55 -4.83 34.38 -42.36 17.61 -29.10 -4.32 18.97 -14.51 -11.40 0 -37.87 -12.76 0 6.34 23.10 0 0.00 0.00 0 0.00 -15.00 0 -19.17 0.00 0 -39.70 0.00 0 -19.85 0.00 0 0.00 0.00 0 -16.78 0.00 0 -16.78 0.00 0 -16.78 0.00 0 0.00 15.00 0 -46.04 0.00 0 -46.04 0.00 0 -46.04 0.00 0 0.00 25.00 0 -36.80 0.00 0 -36.80 0.00 0 -36.80 
-161.05 92.33 121.81 137.47 -3.78 -3.36 7.33 -5.69 -7.62 0.00 16.98 -0.00 3.07 -8.15 11.66 -9.19 -9.24 0.94 0.00 33.29 0.00 8.38 -22.18 -0.45 -5.28 -0.66 0.43 -1.32 -0.17 0.10 -2.20 -0.27 0.17 0.75 -0.71 0.55 0.75 -0.72 0.55 11.63 -14.56 8.78 17.76 -4.37 2.57 -14.56 0.52 -27.46 -47.56 -12.43 38.14 -20.65 5.35 10.77 -45.37 -0 16.79 19.8 -0 -13.03 3.99 -0 0.00 0 -0 0.00 -15 -0 31.78 0 -0 37.76 0 -0 18.88 0 -0 0.00 0 -0 27.51 0 -0 27.51 0 -0 27.51 0 -0 0.00 15 -0 41.33 0 -0 41.33 0 -0 41.33 0 -0 0.00 25 -0 40.77 0 -0 40.77 0 -0 40.77 -0.53 -0.13 -3.00 4.91 -4.52 34.13 -42.85 17.37 -29.01 -3.92 19.57 -14.37 -11.43 0 -37.82 -12.81 0 6.40 22.98 0 0.00 0.00 0 0.00 -15.00 0 -19.13 0.00 0 -39.64 0.00 0 -19.82 0.00 0 0.00 0.00 0 -16.66 0.00 0 -16.66 0.00 0 -16.66 0.00 0 0.00 15.00 0 -45.99 0.00 0 -45.99 0.00 0 -45.99 0.00 0 0.00 25.00 0 -36.76 0.00 0 -36.76 0.00 0 -36.76 
